<?xml version="1.0" encoding="UTF-8"?>
<svg width="68px" height="75px" viewBox="0 0 68 75" version="1.1" xmlns="http://www.w3.org/2000/svg" xmlns:xlink="http://www.w3.org/1999/xlink">
    <!-- Generator: Sketch 45.1 (43504) - http://www.bohemiancoding.com/sketch -->
    <title>Logomark SVG</title>
    <desc>Created with Sketch.</desc>
    <defs></defs>
    <g id="Ad-Landing-Page" stroke="none" stroke-width="1" fill="none" fill-rule="evenodd">
        <g id="Ad-Landing-04" transform="translate(-250.000000, -27.000000)" fill="#23AFFF">
            <g id="Logomark-SVG" transform="translate(250.000000, 27.000000)">
                <path d="M5.61724066,57.5516392 L0,57.5516392 C0.326584037,64.3029583 1.56760099,68.2820093 5.22534459,74.3482947 L11.4304294,74.3482947 C14.9248678,68.2820093 16.067906,64.3029583 16.6231,57.5516392 L11.0385094,57.5516392 C10.9405354,63.1613942 9.92814517,66.6836766 8.32788697,69.9453226 C6.76027883,66.6836766 5.78051479,63.1613942 5.61724066,57.5516392 L5.61724066,57.5516392 Z" id="path0_fill"></path>
                <path d="M25.2850717,57.5516392 L19.7332027,57.5516392 L19.7332027,74.3482947 L25.2850717,74.3482947 L25.2850717,57.5516392 L25.2850717,57.5516392 Z M22.5091492,55.9535446 C24.4687011,55.9535446 25.6118108,54.7793711 25.6118108,52.9530112 C25.6118108,51.1592607 24.4687011,49.9850872 22.5091492,49.9850872 C20.5169949,49.9850872 19.3739567,51.1592607 19.3739567,52.9530112 C19.3739567,54.7793711 20.5169949,55.9535446 22.5091492,55.9535446 L22.5091492,55.9535446 Z" id="path1_fill"></path>
                <path d="M29.1374922,58.4975475 L29.1374922,74.3482947 L34.6894327,74.3482947 L34.6894327,62.01983 C35.1793028,61.8241741 35.636499,61.7263461 36.4857821,61.7263461 C37.3021527,61.7263461 38.0531756,61.8241741 38.6737413,62.0524393 L39.4576765,57.5516392 C38.771763,57.323374 37.4001744,57.1603274 35.9956735,57.1603274 C33.8077143,57.1603274 30.9011676,57.6820765 29.1374922,58.4975475 L29.1374922,58.4975475 Z" id="path2_fill"></path>
                <path d="M52.3326264,74.478732 L52.0385613,70.0431505 C51.7120607,70.1083692 51.1568428,70.1735878 50.4382554,70.1735878 C49.1320146,70.1735878 48.4461011,69.2928982 48.4461011,67.6621942 L48.4461011,61.9546113 L51.6793868,61.9546113 L51.6793868,57.5516392 L48.4461011,57.5516392 L48.4461011,53.8010915 L42.8941605,54.0619661 L42.8941605,57.5516392 L40.7715491,57.5516392 L40.7715491,61.9546113 L42.8941605,61.9546113 L42.8941605,67.7274129 C42.8941605,72.2934316 44.9189887,74.7396065 49.2627102,74.7396065 C50.3404721,74.7396065 51.5160173,74.6417786 52.3326264,74.478732 L52.3326264,74.478732 Z" id="path3_fill"></path>
                <path d="M60.8419132,70.8257742 C59.50276,70.8257742 58.7844111,70.2714158 58.7844111,69.2276795 C58.7844111,68.1187247 59.6661296,67.6295849 60.7112176,67.6295849 C61.1684138,67.6295849 61.7563056,67.6948035 62.3441974,67.8252408 L62.3441974,70.597509 C61.952349,70.7605555 61.3644572,70.8257742 60.8419132,70.8257742 L60.8419132,70.8257742 Z M67.7327684,73.3697771 L67.7327684,64.5312236 C67.7327684,59.8999862 65.2180701,57.1603274 60.1559997,57.1603274 C58.1311715,57.1603274 55.7471688,57.5842486 54.2448847,58.1714543 L55.1919509,62.4765985 C56.5962134,61.922002 58.1311715,61.7263461 59.50276,61.7263461 C61.2991094,61.7263461 62.3441974,62.4113798 62.3441974,64.1725211 L62.3441974,64.4333956 C61.7236317,64.3355677 60.6458698,64.270349 59.9275208,64.270349 C55.8125166,64.270349 53.2978184,66.3901928 53.2978184,69.4559448 C53.2978184,72.4564781 55.5837993,74.7396065 60.2540214,74.7396065 C63.7157859,74.7396065 66.4592016,73.9567448 67.7327684,73.3697771 L67.7327684,73.3697771 Z" id="path4_fill"></path>
                <path d="M41.0381873,1.49477785 C38.0767866,5.50916589 34.7056504,4.83993698 33.5086407,0 C32.3118695,4.83993698 28.9407333,5.50916589 25.9790941,1.49477785 C26.729163,6.42341693 23.8710309,8.32922929 19.5956861,5.75154595 C22.1784988,10.0185586 20.2688878,12.8708029 15.3304774,12.1222405 C19.352826,15.0780015 18.6822716,18.442474 13.8327485,19.6369985 C18.6822716,20.8315231 19.352826,24.1958765 15.3304774,27.1516613 C20.2688878,26.4030751 22.1784988,29.2555574 19.5956861,33.5223797 C23.8710309,30.9448154 26.729163,32.8506753 25.9790941,37.7792049 C28.9407333,33.7649264 32.3118695,34.4340125 33.5086407,39.2739971 C34.7056504,34.4340125 38.0767866,33.7649264 41.0381873,37.7792049 C40.2883569,32.8506753 43.1462505,30.9448154 47.4215237,33.5223797 C44.8388542,29.2555574 46.748489,26.4030751 51.6867802,27.1516613 C47.6645508,24.1958765 48.3349621,20.8315231 53.1845329,19.6369985 C48.3349621,18.442474 47.6645508,15.0780015 51.6867802,12.1222405 C46.748489,12.8708029 44.8388542,10.0185348 47.4215237,5.75154595 C43.1462505,8.32922929 40.2883569,6.42341693 41.0381873,1.49477785 L41.0381873,1.49477785 Z M46.74515,19.6369985 C46.74515,26.9329171 40.8190098,32.847343 33.5086407,32.847343 C26.1982716,32.847343 20.2721314,26.9329171 20.2721314,19.6369985 C20.2721314,12.3411276 26.1982716,6.42665406 33.5086407,6.42665406 C40.8190098,6.42665406 46.74515,12.3411276 46.74515,19.6369985 L46.74515,19.6369985 Z" id="path5_fill"></path>
            </g>
        </g>
    </g>
</svg>